<?xml version="1.0" encoding="UTF-8" standalone="no"?>
<!-- Created with Inkscape (http://www.inkscape.org/) -->

<svg
   xmlns:dc="http://purl.org/dc/elements/1.1/"
   xmlns:cc="http://creativecommons.org/ns#"
   xmlns:rdf="http://www.w3.org/1999/02/22-rdf-syntax-ns#"
   xmlns:svg="http://www.w3.org/2000/svg"
   xmlns="http://www.w3.org/2000/svg"
   xmlns:sodipodi="http://sodipodi.sourceforge.net/DTD/sodipodi-0.dtd"
   xmlns:inkscape="http://www.inkscape.org/namespaces/inkscape"
   id="svg2405"
   sodipodi:version="0.32"
   inkscape:version="0.91 r13725"
   width="200mm"
   height="200mm"
   sodipodi:docname="00stratego-flag2.svg"
   version="1.0">
  <metadata
     id="metadata2410">
    <rdf:RDF>
      <cc:Work
         rdf:about="">
        <dc:format>image/svg+xml</dc:format>
        <dc:type
           rdf:resource="http://purl.org/dc/dcmitype/StillImage" />
        <dc:title></dc:title>
      </cc:Work>
    </rdf:RDF>
  </metadata>
  <defs
     id="defs2408" />
  <sodipodi:namedview
     inkscape:window-height="632"
     inkscape:window-width="1720"
     inkscape:pageshadow="2"
     inkscape:pageopacity="0.0"
     borderopacity="1.0"
     bordercolor="#666666"
     pagecolor="#ffffff"
     id="base"
     inkscape:zoom="0.50259871"
     inkscape:cx="-119.01236"
     inkscape:cy="428.86781"
     inkscape:window-x="2064"
     inkscape:window-y="72"
     inkscape:current-layer="layer4"
     showgrid="false"
     inkscape:window-maximized="0" />
  <g
     inkscape:groupmode="layer"
     id="layer4"
     inkscape:label="Vector">
    <path
       style="opacity:1;fill:#000000;fill-opacity:1;fill-rule:evenodd;stroke:none;stroke-width:1px;stroke-linecap:butt;stroke-linejoin:miter;stroke-opacity:1"
       d="m 129.82157,75.421488 c -0.002,0.0025 -0.0244,0.02417 -0.0272,0.02722 -4.33235,0.866471 -16.48073,76.241034 -8.68251,97.902774 3.50695,9.74148 11.057,18.07608 18.29043,24.30557 -33.71616,60.4757 -12.43394,111.3699 14.64323,132.52393 27.727,21.66174 49.39206,46.77737 32.06268,76.23732 -17.32939,29.45994 -34.2433,11.55353 -38.13227,32.93365 -3.77406,20.74834 36.45044,59.59746 55.47006,58.05577 19.91181,-1.61399 6.05079,-39.86971 23.38018,-39.00324 l 65.8673,181.10787 39.847,-6.06959 L 280.79923,472.585 c 56.48625,5.72161 65.54503,-9.7139 89.1386,-10.83272 30.62441,-1.45222 49.00412,11.02438 82.08917,8.57364 33.08506,-2.45077 38.00468,-11.01871 78.44197,-20.82169 40.43733,-9.80299 46.56358,6.12629 60.04267,1.2248 13.47908,-4.90149 20.67689,-22.47734 2.44961,-69.86833 -18.38057,-47.78952 -31.21836,-57.03746 -46.56981,-93.11242 -18.66955,-43.87228 -2.67063,-62.97977 -22.07371,-109.0621 -15.89454,-37.74954 -25.3274,-45.7274 -32.25321,-45.42666 -0.005,2.2e-4 -0.0217,1e-5 -0.0272,0 -0.0115,-3.6e-4 -0.0425,4.6e-4 -0.0544,0 -0.006,-1.3e-4 -0.0215,-6e-5 -0.0272,0 -0.003,1.7e-4 -0.0217,1.3e-4 -0.0272,0 -0.003,-6e-5 -0.0245,1.1e-4 -0.0272,0 -0.003,-6e-5 -0.0244,1.6e-4 -0.0272,0 2.7e-4,0.002 8e-5,0.0212 0,0.0272 -0.003,-1.6e-4 -0.0248,5e-5 -0.0272,0 -0.005,-1.5e-4 -0.0247,-1.8e-4 -0.0272,0 -1.52202,0.10944 -2.92489,0.61869 -4.24599,1.27924 -7.35224,3.67613 -30.62977,19.62297 -68.61632,22.07371 -37.98654,2.45076 -64.95096,-9.82735 -104.16288,-6.15124 -39.21192,3.67611 -44.12983,25.74586 -82.11638,30.64735 -19.47335,2.51269 -33.78621,1.1788 -43.11315,-0.73488 3.68938,-12.09362 6.12923,-19.74875 2.61292,-31.30058 -4.13826,-13.59509 -57.62935,-74.063169 -62.32898,-73.678845 -0.003,-1.22e-4 -0.0247,4e-6 -0.0272,0 z m 16.43961,47.658532 c 13.86351,9.53117 27.72132,26.01091 30.32073,34.6756 2.5994,8.66469 -5.19841,25.97938 -10.39723,28.57879 -5.19881,2.59941 -24.27366,-3.46529 -28.60601,-15.59585 -4.33234,-12.13057 0.88427,-22.53092 8.68251,-47.65854 z m 336.41317,37.69679 c 0.003,5e-5 0.0241,-2.9e-4 0.0272,0 0.003,4e-5 0.0242,-2.9e-4 0.0272,0 0.003,3e-5 0.0244,-2.7e-4 0.0272,0 0.003,2e-5 0.0247,-2.3e-4 0.0272,0 0.003,-2.5e-4 0.025,-2e-5 0.0272,0 0.003,1.1e-4 0.0248,1.1e-4 0.0272,0 0.009,7e-5 0.0451,-1.9e-4 0.0544,0 0.006,1.1e-4 0.0249,1.3e-4 0.0272,0 0.004,10e-6 0.0226,-1.8e-4 0.0272,0 0.0137,7.7e-4 0.0409,2.9e-4 0.0544,0 0.003,-2.8e-4 0.0219,-1.1e-4 0.0272,0 0.0226,-1.9e-4 0.0591,-5.5e-4 0.0816,0 0.006,2e-5 0.0213,1.7e-4 0.0272,0 3.82372,-0.11496 7.59868,1.22353 10.75107,3.32058 10.16944,8.0483 10.78275,23.41817 6.28734,34.6756 -9.31673,17.76206 -27.10188,28.79879 -39.5476,44.20186 -5.30417,6.4203 -9.92526,16.1788 -19.24305,16.82066 -6.65765,-0.80483 -6.09847,-9.49215 -4.49096,-14.20774 8.04573,-22.30228 17.41945,-44.41935 27.00015,-66.19392 3.27044,-8.25707 8.56895,-18.21715 18.67148,-18.56261 0.003,7e-5 0.0249,0 0.0272,0 0.003,9e-5 0.0248,0 0.0272,0 0.003,1.1e-4 0.0247,-1e-5 0.0272,0 0.004,-0.009 0.0226,-0.0448 0.0272,-0.0544 z m -275.85336,41.61616 c 0.0142,-1.9e-4 0.0443,-9e-5 0.0544,0 0.0329,8.7e-4 0.072,0.003 0.10887,0 0.0595,-0.004 0.13052,0.003 0.19053,0 0.0604,-0.003 0.12953,0.003 0.19052,0 0.0615,-0.003 0.12852,0.003 0.19053,0 0.0625,-0.003 0.1275,0.003 0.19052,0 0.12805,-0.005 0.25082,0.003 0.38105,0 4.4419,-0.10976 10.13818,0.88414 16.41239,2.09578 17.94736,3.46587 15.50174,17.08602 42.45992,31.7905 26.95819,14.70446 55.14685,18.36583 47.79462,31.84493 -7.35224,13.4791 -30.10169,0.5795 -64.9419,-9.79844 -22.75229,-6.77728 -41.81616,-18.08 -49.01942,-37.96896 -4.68723,-12.94189 -1.44096,-17.35841 5.98793,-17.96381 z m -24.16949,10.8055 71.90968,222.69681 -20.79447,7.78432 -73.65162,-222.66959 22.53641,-7.81154 z m -33.80462,18.20877 30.32073,93.57512 c -32.05936,-19.92879 -50.24953,-39.85402 -30.32073,-93.57512 z m 222.69681,9.09078 c 12.13057,21.66173 54.15215,32.93285 57.18479,53.72812 3.03264,20.79527 -19.06172,28.14948 -15.59585,45.04562 3.46588,16.89615 5.6265,8.75994 8.65529,22.9719 5.63205,26.42731 -46.79657,35.09406 -48.5295,5.6341 -1.07389,-17.98762 11.27965,-18.19016 8.24702,-30.32073 -3.03265,-12.13057 -39.87177,-19.0859 -44.63735,-35.98206 -4.76558,-16.89614 18.21267,-40.71493 34.6756,-61.07695 z m 73.97823,96.70518 c 0.003,-2e-4 0.0239,-5e-5 0.0272,0 0.0142,2.1e-4 0.0464,3.4e-4 0.0544,0 0.003,-1.8e-4 0.0239,-5e-5 0.0272,0 0.009,6.7e-4 0.0437,3.9e-4 0.0544,0 0.003,-1.6e-4 0.0239,-4e-5 0.0272,0 0.009,5.7e-4 0.0437,3.2e-4 0.0544,0 0.003,-1.4e-4 0.0239,-3e-5 0.0272,0 0.009,4.8e-4 0.0436,2.5e-4 0.0544,0 0.0972,-0.007 0.20123,0.002 0.2994,0 0.24231,-0.004 0.46111,0.0248 0.70767,0.0544 13.59524,0.0571 26.58691,5.73516 39.49316,9.52627 18.79585,7.04537 38.51005,11.2925 56.77653,19.51523 16.149,7.21444 32.89519,19.86666 34.81168,38.81271 -0.0198,5.51805 2.31983,13.16257 -2.50405,17.3378 -5.02891,2.16736 -11.18311,1.36975 -16.35791,0.0544 -14.52893,-7.20421 -25.74785,-19.61594 -38.56779,-29.39533 -14.21587,-12.6751 -31.20699,-21.31137 -48.39342,-29.17758 -10.30617,-5.62442 -22.39065,-9.45997 -30.37517,-18.26321 -3.02255,-3.24731 -0.0872,-7.91539 3.78329,-8.46476 z m -103.34634,4.02825 c 0.0699,-0.005 0.149,0.003 0.21774,0 1.90466,-0.099 3.34852,0.4297 4.246,1.66029 9.90438,13.5805 -17.14217,29.41176 -28.17053,52.69384 -11.02835,23.28206 -17.17052,61.26748 -25.74812,61.26748 -8.21383,10e-6 -17.79493,-8.18273 -23.18965,-19.29749 l -3.75607,-11.67647 c -0.65014,-3.91421 -0.70363,-7.9342 0,-11.92144 3.30417,-18.72361 58.57524,-71.41105 76.40063,-72.72621 z m -138.72961,70.38547 8.65529,24.27836 c -8.6647,29.45996 -7.80585,48.36479 -31.1917,29.44976 -29.45995,-23.82791 -12.05302,-29.42873 -0.97985,-37.47904 8.75864,-6.36761 17.01775,-11.48349 23.51626,-16.24908 z"
       id="path2417"
       inkscape:connector-curvature="0" />
  </g>
</svg>
