<?xml version="1.0" encoding="UTF-8" standalone="no"?>
<!-- Created with Inkscape (http://www.inkscape.org/) -->

<svg
   xmlns:dc="http://purl.org/dc/elements/1.1/"
   xmlns:cc="http://creativecommons.org/ns#"
   xmlns:rdf="http://www.w3.org/1999/02/22-rdf-syntax-ns#"
   xmlns:svg="http://www.w3.org/2000/svg"
   xmlns="http://www.w3.org/2000/svg"
   xmlns:sodipodi="http://sodipodi.sourceforge.net/DTD/sodipodi-0.dtd"
   xmlns:inkscape="http://www.inkscape.org/namespaces/inkscape"
   id="svg2"
   sodipodi:version="0.32"
   inkscape:version="0.91 r13725"
   width="210mm"
   height="210mm"
   sodipodi:docname="06stratego-captain2.svg"
   version="1.0"
   inkscape:export-filename="C:\Users\Marcel\git\StrategyGameStratego\graphics\06captain.png"
   inkscape:export-xdpi="5.3939519"
   inkscape:export-ydpi="5.3939519">
  <metadata
     id="metadata7">
    <rdf:RDF>
      <cc:Work
         rdf:about="">
        <dc:format>image/svg+xml</dc:format>
        <dc:type
           rdf:resource="http://purl.org/dc/dcmitype/StillImage" />
        <dc:title></dc:title>
      </cc:Work>
    </rdf:RDF>
  </metadata>
  <defs
     id="defs5" />
  <sodipodi:namedview
     inkscape:window-height="1018"
     inkscape:window-width="1920"
     inkscape:pageshadow="2"
     inkscape:pageopacity="0.0"
     borderopacity="1.0"
     bordercolor="#666666"
     pagecolor="#ffffff"
     id="base"
     inkscape:zoom="0.50259871"
     inkscape:cx="262.57243"
     inkscape:cy="471.65403"
     inkscape:window-x="-8"
     inkscape:window-y="112"
     inkscape:current-layer="svg2"
     showgrid="false"
     inkscape:window-maximized="1" />
  <g
     inkscape:groupmode="layer"
     id="layer2"
     inkscape:label="Vector"
     transform="translate(133.30715,49.741472)">
    <path
       style="opacity:1;fill:#000000;fill-opacity:1;fill-rule:evenodd;stroke:none;stroke-width:1px;stroke-linecap:butt;stroke-linejoin:miter;stroke-opacity:1"
       d="m 84.584678,-43.227373 c -22.17999,1.25062 -39.84374,19.72824 -39.84375,42.2187501 0,21.0630199 15.44427,38.5281599 35.625,41.6874999 0.78188,9.06634 1.83294,18.95077 2.34375,28.65625 1.40689,26.73111 19.676352,227.173283 11.96875,236.343753 -8.01547,9.53678 -42.20898,3.51595 -63.3125,2.8125 -21.09182,-0.70304 -22.5104201,30.9681 0,32.375 19.15143,1.19696 41.37071,3.91968 64.46875,3.40625 0.66859,4.78219 1.26819,10.2663 1.65625,16.28125 1.40691,21.80697 -22.49543,44.33791 -32.34375,57 -9.84831,12.66211 -7.73925,25.31118 2.8125,28.125 10.37515,2.76671 4.90625,6.32518 4.90625,12.65625 0,6.33106 -1.54718,16.20797 6.34375,24.625 10.55175,11.25521 -0.10141,19.92524 0.6875,37.28125 0.60865,13.39029 10.18464,23.62476 32.343752,32.0625 13.18575,50.48049 6.2334,111.57419 4.25,135.375 65.42091,-9.8483 225.78873,-48.54199 243.37503,-59.09375 -2.8139,-21.80697 -16.1729,-99.19694 -14.0625,-112.5625 1.7381,-11.00851 -3.1833,-20.10968 -10.875,-21.40625 -0.9065,-27.15999 7.5169,-44.09784 29.1562,-69.34375 29.0392,-33.87905 18.671,-99.70592 -1.0625,-111.96875 6.6278,-105.44764 -28.6089,-225.659973 -39.7187,-271.406253 -11.9587,-49.2415299 -18.9942,-56.9847 -31.6563,-56.28125 -8.8775,0.49319 -103.85036,6.1769901 -162.49998,12.4375001 -0.49939,-22.8656901 -19.23395,-41.2812601 -42.218752,-41.2812501 -0.27303,0 -0.5407,-0.005 -0.8125,0 -0.17908,0.003 -0.35273,-0.006 -0.53125,0 -0.0886,0.003 -0.16157,-0.003 -0.25,0 -0.0881,0.003 -0.16206,-0.004 -0.25,0 -0.0876,0.004 -0.16254,-0.004 -0.25,0 -0.0871,0.004 -0.16302,-0.005 -0.25,0 z M 273.14716,4.1476271 c 0.0855,-0.003 0.1653,0.002 0.25,0 0.3388,-0.006 0.6706,0.002 1,0 13.3942,-0.0821 19.714,0.82214 21.4688,1.875 3.5172,2.11036 12.6741,25.3105499 7.75,29.5312499 -4.9242,4.22072 -66.8425,3.52865 -69.6563,9.15625 -2.8138,5.62761 9.8418,222.278643 14.0625,227.906253 4.2207,5.62759 90.0612,-9.8457 92.875,-5.625 2.8138,4.2207 4.2214,25.34244 -1.4062,28.15625 -5.6276,2.8138 -43.627,7.71549 -106.9375,14.75 -63.3106,7.03451 -106.93623,10.57975 -109.75003,7.0625 -2.8138,-3.51723 -4.92481,-19.01204 1.40625,-26.75 6.33107,-7.73798 84.43488,-6.32454 90.06248,-14.0625 5.6276,-7.73796 -9.8724,-226.513993 -15.5,-230.031253 -5.6276,-3.51724 -86.49737,16.1735 -92.12498,12.65625 -5.62759,-3.51727 -8.455412,-28.8265 -3.53125,-32.34375 4.92416,-3.51725 46.44074,-12.6849 106.93753,-18.3124999 28.8305,-2.68191 48.8478,-3.7656 62.3125,-3.9375 0.2599,-0.003 0.5248,-0.0226 0.7812,-0.0312 z M 110.14718,129.83513 c 59.08985,7.73796 54.16441,90.7308 2.8125,98.46875 -3.51724,-31.65528 -9.14356,-81.58594 -2.8125,-98.46875 z m 104.21878,206.21875 c 0,0 -70.4791,183.63755 -75.25003,192.09375 -5.52828,9.79856 -21.57322,5.63526 -28.96875,1.9375 -9.84831,-4.92415 -11.235992,-17.59115 -7.71875,-23.21875 3.51725,-5.6276 2.111,-11.93492 -1.40625,-17.5625 -3.517262,-5.62761 2.09115,-13.37303 7.71875,-17.59375 5.62761,-4.2207 14.07781,-19.70021 14.78125,-26.03125 0.70345,-6.33106 -16.13937,-1.50859 -33.062502,-6.34375 -15.3768,-4.39337 4.8302,-25.93101 18.781252,-40.1875 4.2872,5.25434 10.00568,11.65261 12.875,12.0625 4.92415,0.70345 54.85839,-18.27798 56.96875,-25.3125 1.86545,-6.21816 -49.56456,-19.04718 -61.53125,-21.9375 -0.74193,-2.53263 -1.2213,-5.0843 -1.0625,-7.625 0.36546,-5.84743 2.25475,-9.4015 6.25,-13.75 19.93989,-1.45282 54.68098,-3.92856 91.62503,-6.53125 z m 62.4375,54.96875 c 0.0285,-0.004 0.0651,0.003 0.0937,0 0.004,-1.4e-4 0.0273,-3e-5 0.0313,0 0.0121,5.5e-4 0.0511,3.3e-4 0.0625,0 0.006,1.2e-4 0.0274,1.4e-4 0.0312,0 0.0315,1.1e-4 0.0935,-4.9e-4 0.125,0 0.004,-7e-5 0.0253,-8e-5 0.0313,0 2.2397,-0.15535 4.691,0.83775 7.4375,3.3125 17.2425,15.53644 4.295,38.19345 0,46.40625 -4.7153,9.01623 -12.8963,20.50723 -22.875,22.0625 -14.4635,2.25426 -12.2592,17.07752 -3.1563,18.75 22.1786,4.07487 29.5394,-21.80241 45.7188,-9.84375 10.188,7.5303 11.2256,21.65202 3.0937,31.53125 -11.2733,4.34182 -26.3718,9.72703 -46.7187,14.90625 -17.9543,4.5702 -51.8054,10.18985 -82.93753,14.90625 l 36.59373,-95.1875 c 24.2825,-2.05406 38.1351,-5.57116 44.9375,-21.03125 5.2616,-11.95809 10.2422,-24.91821 17.5313,-25.8125 z m 20.0312,144.6875 c 0.006,1.1e-4 0.028,1.2e-4 0.0313,0 0.0264,2e-4 0.068,-3.7e-4 0.0937,0 0.003,-8e-5 0.025,-9e-5 0.0313,0 0.006,9e-5 0.028,10e-5 0.0312,0 0.0267,1.5e-4 0.0679,-3.3e-4 0.0938,0 0.003,-7e-5 0.0249,-7e-5 0.0312,0 0.003,-2.2e-4 0.0249,-8e-5 0.0313,0 0.0209,1.1e-4 0.0422,-2.9e-4 0.0625,0 0.006,6e-5 0.0285,1.8e-4 0.0312,0 0.3161,-0.02 0.5336,-0.0192 0.6875,0 6.5851,0.82315 8.4548,17.60645 4.9375,23.9375 -3.5172,6.33105 -139.44306,41.61443 -143.49998,35.875 -5.38025,-7.61153 -3.0425,-26.11101 4.90625,-29.5625 10.54471,-4.57869 119.14353,-28.99471 132.53123,-30.25 z m 6.8438,49.21875 c 0.003,3e-5 0.0278,-1.6e-4 0.0312,0 0.003,2e-5 0.028,-1.6e-4 0.0313,0 0.003,10e-6 0.0282,-1.2e-4 0.0312,0 0.003,0 0.0283,-8e-5 0.0313,0 0.0271,-4.7e-4 0.069,-9.2e-4 0.0937,0 0.006,1.1e-4 0.0251,10e-5 0.0313,0 0.1631,-0.003 0.2788,0.0192 0.375,0.0312 6.5851,0.82315 8.4547,17.57517 4.9375,23.90625 -3.5173,6.33105 -144.68821,46.23801 -149.15628,40.8125 -5.38025,-6.53316 -3.01123,-25.29193 4.9375,-29.53125 10.26323,-5.47372 127.00728,-34.26573 138.56248,-35.1875 0.003,1e-4 0.0286,0 0.0313,0 0.003,1.5e-4 0.0284,-2e-5 0.0312,0 0.003,-0.003 0.0284,-0.0277 0.0313,-0.0312 z"
       id="path2184"
       inkscape:connector-curvature="0" />
  </g>
</svg>
